<svg width="11" height="9" viewBox="0 0 11 9" fill="none" xmlns="http://www.w3.org/2000/svg">
<path d="M0.745846 4.64374C0.764882 4.68983 0.792367 4.73136 0.826933 4.76592L4.33357 8.27256C4.40671 8.3457 4.50291 8.38275 4.59909 8.38275C4.69527 8.38275 4.79147 8.3462 4.8646 8.27256C5.01138 8.12578 5.01138 7.88781 4.8646 7.74104L1.9992 4.87563H10.1095C10.3169 4.87563 10.4852 4.70731 10.4852 4.49992C10.4852 4.29252 10.3169 4.1242 10.1095 4.1242H1.99968L4.86509 1.25879C5.01187 1.11202 5.01187 0.874049 4.86509 0.727271C4.71832 0.580493 4.48035 0.580493 4.33357 0.727271L0.826933 4.23391C0.792367 4.26847 0.764882 4.31 0.745846 4.35609C0.707774 4.44826 0.707774 4.55157 0.745846 4.64374Z" fill="#1E2F3A"/>
</svg>
