<svg width="10" height="9" viewBox="0 0 10 9" fill="none" xmlns="http://www.w3.org/2000/svg">
<path d="M0.102109 4.53534C0.121144 4.58143 0.148629 4.62296 0.183195 4.65752L3.68983 8.16416C3.76297 8.2373 3.85917 8.27435 3.95535 8.27435C4.05153 8.27435 4.14773 8.2378 4.22087 8.16416C4.36764 8.01738 4.36764 7.77942 4.22087 7.63264L1.35546 4.76723H9.46578C9.67317 4.76723 9.84149 4.59891 9.84149 4.39152C9.84149 4.18412 9.67317 4.01581 9.46578 4.01581H1.35595L4.22136 1.1504C4.36813 1.00362 4.36813 0.76565 4.22136 0.618872C4.07458 0.472095 3.83661 0.472095 3.68983 0.618872L0.183195 4.12551C0.148629 4.16008 0.121144 4.2016 0.102109 4.24769C0.0640364 4.33986 0.0640364 4.44317 0.102109 4.53534Z" fill="white"/>
</svg>
