<svg width="31" height="31" viewBox="0 0 31 31" fill="none" xmlns="http://www.w3.org/2000/svg">
<path d="M29.6585 7.20015C29.6569 7.19696 29.6585 7.19379 29.657 7.189C29.6538 7.18102 29.6458 7.17462 29.641 7.16664C29.0632 6.13392 28.1725 5.28154 27.0472 4.78194L17.4702 0.524969C16.0273 -0.115094 14.3752 -0.115094 12.9307 0.524969L3.35371 4.78194C2.22841 5.28154 1.33775 6.13392 0.759934 7.16664C0.755145 7.17462 0.748745 7.18102 0.743956 7.189C0.74236 7.19219 0.743994 7.19536 0.742398 7.20015C0.297067 8.00941 0.0368652 8.92558 0.0368652 9.88647V20.5282C0.0368652 22.7341 1.33775 24.7373 3.35371 25.6327L12.9307 29.8897C13.649 30.2073 14.4182 30.3669 15.1876 30.3685C15.1924 30.3685 15.1957 30.3701 15.2005 30.3701C15.2052 30.3701 15.2085 30.3685 15.2133 30.3685C15.9843 30.3669 16.7519 30.2073 17.4702 29.8897L27.0472 25.6327C29.0632 24.7373 30.364 22.7341 30.364 20.5282V9.88647C30.364 8.92558 30.1038 8.011 29.6585 7.20015ZM13.5788 1.98548C14.0927 1.75722 14.6466 1.64231 15.2005 1.64231C15.7543 1.64231 16.3066 1.75722 16.8221 1.98548L26.3992 6.24244C26.9019 6.46591 27.3121 6.81069 27.6728 7.20015L22.6083 9.45075L10.0673 3.54813L13.5788 1.98548ZM4.00176 6.24083L8.13734 4.40209L20.6785 10.3063L16.8253 12.019C15.7941 12.4707 14.6068 12.4707 13.5756 12.0206L2.7265 7.19854C3.08883 6.80908 3.49897 6.4643 4.00176 6.24083ZM4.00176 24.1754C2.56361 23.5353 1.63303 22.1036 1.63303 20.5282V9.88647C1.63303 9.42518 1.7336 8.98785 1.88204 8.56806L12.9338 13.4811C13.4047 13.687 13.9012 13.8003 14.4024 13.8705V28.6909C14.1214 28.6335 13.8453 28.5489 13.5788 28.4308L4.00176 24.1754ZM28.7679 20.5282C28.7679 22.1036 27.8373 23.5353 26.3992 24.1754L16.8221 28.4324C16.5556 28.5505 16.2795 28.6351 15.9985 28.6925V13.8721C16.5013 13.8003 16.9977 13.687 17.4718 13.4811L21.7926 11.5609V15.0341C21.7926 15.4747 22.1502 15.8322 22.5907 15.8322C23.0313 15.8322 23.3888 15.4747 23.3888 15.0341V10.8506L28.5189 8.57127C28.6673 8.99106 28.7679 9.42999 28.7679 9.88969V20.5282Z" fill="#FAF6ED"/>
</svg>
