<svg width="13" height="13" viewBox="0 0 13 13" fill="none" xmlns="http://www.w3.org/2000/svg">
<path d="M12.2244 9.49718L10.3592 8.19398C10.1153 8.02387 9.83017 7.93418 9.53453 7.93418C9.06442 7.93418 8.62313 8.16474 8.35434 8.5505L7.92134 9.17103C7.19566 8.68433 6.3859 8.00476 5.61397 7.23296C4.84217 6.46116 4.16274 5.65141 3.67618 4.92572L4.29643 4.49273C4.6126 4.27258 4.82375 3.94277 4.89081 3.56432C4.95773 3.18616 4.87338 2.80405 4.65295 2.48774L3.35003 0.622498C3.07758 0.232804 2.63798 0 2.17392 0C2.01309 0 1.85536 0.0283976 1.70522 0.083787C1.53469 0.146768 1.37583 0.224088 1.22007 0.321933L0.962521 0.503285C0.898135 0.553332 0.838247 0.608159 0.780889 0.665517C0.466688 0.979577 0.243724 1.37714 0.117903 1.84725C-0.418981 3.85983 0.911068 6.90315 3.42749 9.41958C5.54072 11.5328 8.0795 12.8456 10.0529 12.8458C10.3908 12.8458 10.7095 12.8065 11 12.7289C11.4701 12.6032 11.8676 12.3802 12.182 12.0659C12.239 12.0088 12.2936 11.9489 12.3521 11.8733L12.5336 11.6143C12.6223 11.4726 12.6995 11.3138 12.7633 11.142C12.9827 10.5487 12.7612 9.87225 12.2244 9.49718Z" fill="#B68161"/>
</svg>
