<svg width="26" height="23" viewBox="0 0 26 23" fill="none" xmlns="http://www.w3.org/2000/svg">
<path d="M5.55078 4.00021H25.1008L22.1008 14.5002H8.55079" stroke="black" stroke-width="1.5" stroke-miterlimit="10" stroke-linecap="round" stroke-linejoin="round"/>
<path d="M13.0488 20.5C13.0488 21.3284 12.3772 22 11.5488 22C10.7204 22 10.0488 21.3284 10.0488 20.5C10.0488 19.6716 10.7204 19 11.5488 19C12.3772 19 13.0488 19.6716 13.0488 20.5Z" stroke="black" stroke-width="1.5" stroke-miterlimit="10" stroke-linecap="round" stroke-linejoin="round"/>
<path d="M20.6035 20.5C20.6035 21.3284 19.9319 22 19.1035 22C18.2751 22 17.6035 21.3284 17.6035 20.5C17.6035 19.6716 18.2751 19 19.1035 19C19.9319 19 20.6035 19.6716 20.6035 20.5Z" stroke="black" stroke-width="1.5" stroke-miterlimit="10" stroke-linecap="round" stroke-linejoin="round"/>
<path d="M22.0986 17.4999H9.47557C8.36051 17.4999 7.63526 16.3264 8.13391 15.329L8.54851 14.4999" stroke="black" stroke-width="1.5" stroke-miterlimit="10" stroke-linecap="round" stroke-linejoin="round"/>
<path d="M1 1.00008H4.69306C5.97012 5.47054 8.55002 14.5001 8.55002 14.5001" stroke="black" stroke-width="1.5" stroke-miterlimit="10" stroke-linecap="round" stroke-linejoin="round"/>
</svg>
