<svg width="17" height="20" viewBox="0 0 17 20" fill="none" xmlns="http://www.w3.org/2000/svg">
<path d="M15 5.25H12.5V4.25C12.5 2.044 10.706 0.25 8.5 0.25C6.294 0.25 4.5 2.044 4.5 4.25V5.25H2C0.897 5.25 0 6.147 0 7.25V15.75C0 18.04 1.21 19.25 3.5 19.25H13.5C15.79 19.25 17 18.04 17 15.75V7.25C17 6.147 16.103 5.25 15 5.25ZM5.5 4.25C5.5 2.596 6.846 1.25 8.5 1.25C10.154 1.25 11.5 2.596 11.5 4.25V5.25H5.5V4.25ZM16 15.75C16 17.479 15.229 18.25 13.5 18.25H3.5C1.771 18.25 1 17.479 1 15.75V7.25C1 6.698 1.448 6.25 2 6.25H4.5V8.75C4.5 9.026 4.724 9.25 5 9.25C5.276 9.25 5.5 9.026 5.5 8.75V6.25H11.5V8.75C11.5 9.026 11.724 9.25 12 9.25C12.276 9.25 12.5 9.026 12.5 8.75V6.25H15C15.552 6.25 16 6.698 16 7.25V15.75Z" fill="white"/>
</svg>
