<svg width="5" height="9" viewBox="0 0 5 9" fill="none" xmlns="http://www.w3.org/2000/svg">
<path d="M4.24368 6.32162L2.44357 8.12172C2.42287 8.14243 2.39763 8.15904 2.37018 8.17029C2.34273 8.18154 2.31352 8.18787 2.28426 8.18787C2.25501 8.18787 2.2258 8.18199 2.19835 8.17029C2.17044 8.15904 2.14565 8.14243 2.12495 8.12172L0.324849 6.32162C0.237094 6.23387 0.237094 6.09119 0.324849 6.00344C0.412605 5.91568 0.555277 5.91568 0.643032 6.00344L2.05881 7.41922V0.762C2.05881 0.637793 2.15962 0.536987 2.28382 0.536987C2.40803 0.536987 2.50884 0.637793 2.50884 0.762V7.41922L3.92462 6.00344C4.01237 5.91568 4.15504 5.91568 4.2428 6.00344C4.33055 6.09119 4.33143 6.23342 4.24368 6.32162Z" fill="white"/>
</svg>
