<svg width="7" height="13" viewBox="0 0 7 13" fill="none" xmlns="http://www.w3.org/2000/svg">
<path d="M6.887 9.57289L3.77573 12.3963C3.73995 12.4287 3.69632 12.4548 3.64888 12.4724C3.60143 12.4901 3.55094 12.5 3.50038 12.5C3.44982 12.5 3.39933 12.4908 3.35188 12.4724C3.30365 12.4548 3.26081 12.4287 3.22503 12.3963L0.113756 9.57289C-0.0379186 9.43525 -0.0379186 9.21148 0.113756 9.07384C0.26543 8.9362 0.512023 8.9362 0.663698 9.07384L3.11071 11.2944V0.852921C3.11071 0.658109 3.28494 0.5 3.49962 0.5C3.7143 0.5 3.88853 0.658109 3.88853 0.852921V11.2944L6.33554 9.07384C6.48722 8.9362 6.73381 8.9362 6.88548 9.07384C7.03716 9.21148 7.03868 9.43455 6.887 9.57289Z" fill="white"/>
</svg>
