<svg width="31" height="32" viewBox="0 0 31 32" fill="none" xmlns="http://www.w3.org/2000/svg">
<path d="M15.6162 0.79834C7.17145 0.79834 0.30188 7.66791 0.30188 16.1127C0.30188 24.5574 7.17145 31.427 15.6162 31.427C24.061 31.427 30.9305 24.5574 30.9305 16.1127C30.9305 7.66791 24.061 0.79834 15.6162 0.79834ZM25.9002 25.3654L21.179 20.6442C22.1927 19.4016 22.827 17.8381 22.827 16.1127C22.827 14.3873 22.1927 12.8237 21.179 11.5811L25.9002 6.8599C28.1127 9.31603 29.472 12.5539 29.472 16.1127C29.472 19.6714 28.1127 22.9093 25.9002 25.3654ZM9.8639 16.1127C9.8639 12.9404 12.4454 10.3604 15.6162 10.3604C18.787 10.3604 21.3685 12.9419 21.3685 16.1127C21.3685 19.2835 18.787 21.865 15.6162 21.865C12.4454 21.865 9.8639 19.2849 9.8639 16.1127ZM24.869 5.82869L20.1478 10.5499C18.9051 9.53476 17.3416 8.90185 15.6162 8.90185C13.8908 8.90185 12.3273 9.53622 11.0846 10.5499L6.36344 5.82869C8.81957 3.61614 12.0589 2.25685 15.6162 2.25685C19.1735 2.25685 22.4128 3.61614 24.869 5.82869ZM5.33223 6.8599L10.0534 11.5811C9.03976 12.8237 8.40539 14.3873 8.40539 16.1127C8.40539 17.8381 9.03976 19.4016 10.0534 20.6442L5.33223 25.3654C3.11968 22.9093 1.76039 19.6714 1.76039 16.1127C1.76039 12.5539 3.11968 9.31603 5.33223 6.8599ZM6.36344 26.3966L11.0846 21.6755C12.3273 22.6906 13.8908 23.3235 15.6162 23.3235C17.3416 23.3235 18.9051 22.6891 20.1478 21.6755L24.869 26.3966C22.4128 28.6092 19.1735 29.9685 15.6162 29.9685C12.0589 29.9685 8.81957 28.6092 6.36344 26.3966Z" fill="#1E2F3A"/>
</svg>
