<svg width="15" height="11" viewBox="0 0 15 11" fill="none" xmlns="http://www.w3.org/2000/svg">
<path d="M8.31146 6.93762C7.95712 7.17384 7.54554 7.29872 7.12119 7.29872C6.69687 7.29872 6.28528 7.17384 5.93095 6.93762L0.0948286 3.04675C0.0624495 3.02517 0.0309048 3.00266 0 2.97952V9.35513C0 10.0861 0.5932 10.6662 1.31111 10.6662H12.9312C13.6622 10.6662 14.2423 10.073 14.2423 9.35513V2.97949C14.2114 3.00269 14.1798 3.02525 14.1473 3.04687L8.31146 6.93762Z" fill="#B68161"/>
<path d="M0.557734 2.35311L6.39385 6.244C6.61478 6.39129 6.86797 6.46493 7.12116 6.46493C7.37438 6.46493 7.6276 6.39127 7.84852 6.244L13.6846 2.35311C14.0339 2.12042 14.2424 1.73098 14.2424 1.31066C14.2424 0.587943 13.6544 0 12.9317 0H1.31066C0.587971 2.78171e-05 0 0.587971 0 1.31136C0 1.73098 0.208517 2.12042 0.557734 2.35311Z" fill="#B68161"/>
</svg>
