<svg width="11" height="15" viewBox="0 0 11 15" fill="none" xmlns="http://www.w3.org/2000/svg">
<path d="M5.37072 0C2.40966 0 0 2.5022 0 5.57856C0 9.94971 4.86587 14.463 5.07294 14.6526C5.15828 14.7307 5.2645 14.7695 5.37072 14.7695C5.47694 14.7695 5.58316 14.7307 5.6685 14.6532C5.87557 14.463 10.7414 9.94971 10.7414 5.57856C10.7414 2.5022 8.33178 0 5.37072 0ZM5.37072 8.61553C3.72549 8.61553 2.38699 7.2352 2.38699 5.53856C2.38699 3.84191 3.72549 2.46158 5.37072 2.46158C7.01595 2.46158 8.35445 3.84191 8.35445 5.53856C8.35445 7.2352 7.01595 8.61553 5.37072 8.61553Z" fill="#B68161"/>
</svg>
