<svg width="91" height="14" viewBox="0 0 91 14" fill="none" xmlns="http://www.w3.org/2000/svg">
<path d="M90.399 6.01836C90.6988 5.72658 90.8058 5.298 90.677 4.89998C90.5475 4.50123 90.2092 4.21601 89.7937 4.15634L86.5323 3.68482C86.4137 3.66736 86.3104 3.59386 86.258 3.48617L84.8449 0.63598C84.6499 0.243779 84.257 0 83.8189 0C83.3809 0 82.9872 0.243779 82.7929 0.63598L81.3799 3.48692C81.3275 3.59389 81.2241 3.66807 81.1055 3.68553L77.8443 4.15705C77.4288 4.21745 77.0904 4.50198 76.9609 4.90073C76.8321 5.29876 76.9391 5.72733 77.2388 6.01912L79.5971 8.30758C79.683 8.39126 79.7223 8.51129 79.7019 8.62917L79.1628 11.7588C79.0886 12.1896 79.2631 12.6174 79.6168 12.8757C79.9711 13.134 80.434 13.169 80.8225 12.9645L83.6494 11.4852C83.7556 11.4291 83.8837 11.4299 83.9907 11.4852L86.8198 12.966C86.9878 13.054 87.1697 13.0976 87.3509 13.0976C87.5881 13.0976 87.8232 13.0234 88.024 12.8772C88.3777 12.6196 88.5515 12.1924 88.4773 11.7617L87.9381 8.63063C87.9178 8.51203 87.9563 8.39197 88.0437 8.30829L90.399 6.01836ZM87.2185 8.75214L87.7577 11.8839C87.7853 12.0418 87.7235 12.1932 87.5932 12.2878C87.4615 12.3838 87.2971 12.3947 87.1537 12.3205L84.3247 10.8398C84.1661 10.7568 83.9914 10.7153 83.8175 10.7153C83.6436 10.7153 83.4689 10.7568 83.3103 10.8398L80.4834 12.3191C80.3386 12.3948 80.1734 12.3824 80.0432 12.2863C79.9122 12.191 79.8503 12.0396 79.878 11.881L80.4172 8.75143C80.4776 8.39561 80.3597 8.03394 80.1014 7.78436L77.7431 5.49594C77.642 5.39771 77.6071 5.25874 77.6507 5.12413C77.6951 4.98951 77.8049 4.89637 77.9453 4.876L81.2067 4.40447C81.5625 4.35281 81.8703 4.13013 82.0297 3.80851L83.4428 0.958323C83.5861 0.668719 84.0467 0.668719 84.19 0.958323L85.6031 3.8078C85.7625 4.12942 86.0703 4.35281 86.4261 4.40447L89.6874 4.876C89.8279 4.89637 89.9384 4.98951 89.9821 5.12413C90.0257 5.25874 89.9909 5.39698 89.889 5.49594L87.5321 7.78436C87.276 8.03467 87.1581 8.39633 87.2185 8.75214Z" fill="#BEBEBE"/>
<path d="M65.1751 0.448561L66.6361 3.39533C66.7459 3.61726 66.9581 3.77074 67.2041 3.8061L70.5766 4.29356C71.195 4.38308 71.4418 5.14142 70.9941 5.57625L68.5559 7.94226C68.3776 8.11529 68.2964 8.36429 68.3385 8.60879L68.8959 11.8467C69.0088 12.5035 68.3189 13.0045 67.7276 12.6953L64.8027 11.1644C64.583 11.0493 64.3212 11.0493 64.1023 11.1644L61.1796 12.6938C60.5875 13.0037 59.8954 12.502 60.009 11.8437L60.5665 8.60879C60.6086 8.36429 60.5273 8.11529 60.349 7.94226L57.9108 5.57625C57.4625 5.14142 57.7092 4.38308 58.3283 4.29356L61.7009 3.8061C61.9462 3.77074 62.1583 3.61726 62.2689 3.39533L63.7299 0.448561C64.024 -0.14952 64.8787 -0.14952 65.1751 0.448561Z" fill="black"/>
<path d="M45.9446 0.448561L47.4056 3.39533C47.5154 3.61726 47.7276 3.77074 47.9736 3.8061L51.3461 4.29356C51.9645 4.38308 52.2113 5.14142 51.7637 5.57625L49.3255 7.94226C49.1472 8.11529 49.0659 8.36429 49.108 8.60879L49.6654 11.8467C49.7783 12.5035 49.0884 13.0045 48.4971 12.6953L45.5722 11.1644C45.3525 11.0493 45.0907 11.0493 44.8718 11.1644L41.9491 12.6938C41.357 13.0037 40.6649 12.502 40.7785 11.8437L41.336 8.60879C41.3781 8.36429 41.2968 8.11529 41.1185 7.94226L38.6804 5.57625C38.232 5.14142 38.4787 4.38308 39.0978 4.29356L42.4704 3.8061C42.7157 3.77074 42.9278 3.61726 43.0384 3.39533L44.4994 0.448561C44.7936 -0.14952 45.6482 -0.14952 45.9446 0.448561Z" fill="black"/>
<path d="M26.719 0.448561L28.18 3.39533C28.2898 3.61726 28.502 3.77074 28.748 3.8061L32.1205 4.29356C32.7389 4.38308 32.9857 5.14142 32.5381 5.57625L30.0999 7.94226C29.9216 8.11529 29.8403 8.36429 29.8824 8.60879L30.4399 11.8467C30.5527 12.5035 29.8629 13.0045 29.2715 12.6953L26.3466 11.1644C26.127 11.0493 25.8651 11.0493 25.6462 11.1644L22.7235 12.6938C22.1314 13.0037 21.4393 12.502 21.5529 11.8437L22.1104 8.60879C22.1526 8.36429 22.0713 8.11529 21.893 7.94226L19.4548 5.57625C19.0064 5.14142 19.2531 4.38308 19.8722 4.29356L23.2449 3.8061C23.4901 3.77074 23.7023 3.61726 23.8128 3.39533L25.2738 0.448561C25.568 -0.14952 26.4226 -0.14952 26.719 0.448561Z" fill="black"/>
<path d="M7.49344 0.448561L8.95442 3.39533C9.06426 3.61726 9.27641 3.77074 9.52242 3.8061L12.8949 4.29356C13.5133 4.38308 13.7601 5.14142 13.3125 5.57625L10.8743 7.94226C10.696 8.11529 10.6147 8.36429 10.6568 8.60879L11.2143 11.8467C11.3271 12.5035 10.6373 13.0045 10.046 12.6953L7.12105 11.1644C6.90138 11.0493 6.63955 11.0493 6.42063 11.1644L3.49792 12.6938C2.90586 13.0037 2.21372 12.502 2.32732 11.8437L2.88484 8.60879C2.92697 8.36429 2.84567 8.11529 2.66738 7.94226L0.229186 5.57625C-0.219187 5.14142 0.0275173 4.38308 0.646663 4.29356L4.01927 3.8061C4.26452 3.77074 4.47667 3.61726 4.58726 3.39533L6.04824 0.448561C6.3424 -0.14952 7.19703 -0.14952 7.49344 0.448561Z" fill="black"/>
</svg>
