<svg width="18" height="19" viewBox="0 0 18 19" fill="none" xmlns="http://www.w3.org/2000/svg">
<path d="M14.3085 9.49984H3.69223C3.55873 9.49984 3.45452 9.61533 3.46802 9.74808L3.92999 14.2248C4.04999 15.3723 4.49249 16.2498 6.17249 16.2498H11.8425C13.4925 16.2498 13.9725 15.3723 14.0775 14.2248L14.532 9.74734C14.5455 9.61534 14.442 9.49984 14.3085 9.49984ZM10.5 13.0623H9.5625V13.9998C9.5625 14.3103 9.3105 14.5623 9 14.5623C8.6895 14.5623 8.4375 14.3103 8.4375 13.9998V13.0623H7.5C7.1895 13.0623 6.9375 12.8103 6.9375 12.4998C6.9375 12.1893 7.1895 11.9373 7.5 11.9373H8.4375V10.9998C8.4375 10.6893 8.6895 10.4373 9 10.4373C9.3105 10.4373 9.5625 10.6893 9.5625 10.9998V11.9373H10.5C10.8105 11.9373 11.0625 12.1893 11.0625 12.4998C11.0625 12.8103 10.8105 13.0623 10.5 13.0623ZM15.75 7.24984C15.75 8.07784 15.078 8.74984 14.25 8.74984H3.75C2.922 8.74984 2.25 8.07784 2.25 7.24984C2.25 6.42184 2.922 5.74984 3.75 5.74984H5.04602L7.03271 2.45884C7.19321 2.19334 7.539 2.10709 7.8045 2.26834C8.07 2.42959 8.15628 2.77459 7.99503 3.04084L6.35925 5.74984H11.6475L10.0305 3.03784C9.87152 2.77159 9.95851 2.42584 10.2263 2.26684C10.4925 2.10859 10.8382 2.19484 10.9972 2.46259L12.9577 5.75059H14.25C15.078 5.74984 15.75 6.42184 15.75 7.24984Z" fill="white"/>
</svg>
