<svg width="20" height="23" viewBox="0 0 20 23" fill="none" xmlns="http://www.w3.org/2000/svg">
<path d="M9.96629 10.7334C11.0277 10.7334 12.0653 10.4186 12.9479 9.82891C13.8304 9.23922 14.5183 8.40106 14.9245 7.42042C15.3306 6.43979 15.4369 5.36073 15.2299 4.3197C15.0228 3.27866 14.5116 2.32241 13.7611 1.57187C13.0106 0.821323 12.0543 0.310196 11.0133 0.103122C9.97224 -0.103953 8.89318 0.00232529 7.91255 0.408517C6.93192 0.814708 6.09376 1.50257 5.50406 2.38511C4.91436 3.26766 4.59961 4.30525 4.59961 5.36668C4.60123 6.78952 5.16717 8.15361 6.17327 9.15971C7.17936 10.1658 8.54346 10.7317 9.96629 10.7334ZM9.96629 1.53334C10.7245 1.53334 11.4656 1.75816 12.096 2.17937C12.7264 2.60059 13.2177 3.19927 13.5078 3.89973C13.798 4.60018 13.8739 5.37094 13.726 6.11453C13.5781 6.85813 13.213 7.54116 12.6769 8.07727C12.1408 8.61337 11.4577 8.97846 10.7141 9.12637C9.97054 9.27428 9.19979 9.19837 8.49933 8.90823C7.79888 8.61809 7.2002 8.12676 6.77898 7.49637C6.35777 6.86598 6.13295 6.12485 6.13295 5.36668C6.13416 4.35039 6.53842 3.37607 7.25705 2.65744C7.97568 1.93882 8.95 1.53456 9.96629 1.53334Z" fill="black"/>
<path d="M13.777 12.2666H6.15635C4.52421 12.2686 2.95949 12.9179 1.80539 14.072C0.651294 15.2261 0.00202877 16.7908 0 18.423V22.2333C0 22.4366 0.0807738 22.6316 0.224552 22.7754C0.36833 22.9192 0.563335 23 0.766669 23H19.1667C19.37 23 19.5651 22.9192 19.7088 22.7754C19.8526 22.6316 19.9334 22.4366 19.9334 22.2333V18.423C19.9314 16.7908 19.2821 15.2261 18.128 14.072C16.9739 12.9179 15.4092 12.2686 13.777 12.2666ZM18.4 21.4666H1.53334V18.423C1.53476 17.1973 2.02228 16.0222 2.88895 15.1556C3.75563 14.2889 4.93069 13.8014 6.15635 13.7999H13.777C15.0027 13.8014 16.1778 14.2889 17.0444 15.1556C17.9111 16.0222 18.3986 17.1973 18.4 18.423V21.4666Z" fill="black"/>
</svg>
