<svg width="185" height="187" viewBox="0 0 185 187" fill="none" xmlns="http://www.w3.org/2000/svg">
<g clip-path="url(#clip0_401_8063)">
<path d="M114.305 2.04L117.819 3.18244L117.311 16.3817L117.453 16.4293L124.746 5.44013L128.261 6.58257L123.731 20.6251L121.774 19.9859L125.674 7.88822L125.512 7.83381L118.219 18.823L115.3 17.8778L115.788 4.6717L115.645 4.6241L111.745 16.7217L109.768 16.0757L114.298 2.0332L114.305 2.04Z" fill="white"/>
<path d="M128.403 16.8375C130.022 13.9542 133.069 12.8457 135.71 14.335C137.559 15.3822 137.816 16.9803 137.897 17.7011L138.046 17.7827L138.818 16.4023L140.633 17.4223L136.435 24.923C136.272 25.2154 136.374 25.467 136.665 25.6302L137.105 25.875L136.177 27.5275L134.877 26.7931C134.092 26.351 133.767 25.5146 134.227 24.685L134.098 24.6102C133.509 24.8822 132.087 25.5282 130.184 24.4538C127.53 22.9577 126.771 19.748 128.41 16.8239L128.403 16.8375ZM136.17 21.2509C137.362 19.1224 136.699 17.1231 135.073 16.2051C133.374 15.2462 131.329 15.9263 130.225 17.8915C129.094 19.9112 129.67 21.9785 131.336 22.9237C133.144 23.9438 135.155 23.0733 136.17 21.2509Z" fill="white"/>
<path d="M147.682 16.4973L149.314 17.7894L143.836 24.78L145.088 25.7729L149.883 24.3584L151.799 25.8681L146.03 27.5069L145.928 27.6361L145.21 34.6608L143.26 33.1239L143.971 27.3029L142.664 26.2761L139.576 30.2202L137.944 28.9282L147.675 16.4973H147.682Z" fill="white"/>
<path d="M149.368 31.0567C151.867 28.6426 155.232 28.8127 157.27 30.9411C159.586 33.3552 159.227 36.4221 156.871 38.7002L156.404 39.1558L150.479 32.9744C148.948 34.4841 148.948 36.2997 150.357 37.7754C151.305 38.7614 152.734 39.1626 153.979 38.4894L154.988 40.2371C152.964 41.2571 150.716 40.7675 149.057 39.0334C146.741 36.6193 146.951 33.4028 149.375 31.0635L149.368 31.0567ZM156.065 36.5241C157.338 35.1505 157.108 33.4096 155.957 32.2128C154.792 30.9955 152.937 30.8255 151.63 31.8932L156.072 36.5241H156.065Z" fill="white"/>
<path d="M158.861 47.5202L159.559 48.6966L169.086 43.0048L168.389 41.8284L169.94 40.9036L173.149 46.3234C174.619 48.8055 174.03 51.0699 172.14 52.2056C170.969 52.906 169.736 52.8856 168.673 52.2872L168.565 52.3552C168.7 53.4024 168.43 55.0141 166.77 56.0069C164.441 57.401 161.983 56.3401 160.737 54.2388L157.311 48.4586L158.861 47.5338V47.5202ZM162.213 52.974C162.999 54.2933 164.265 54.9121 165.694 54.062C167.136 53.1984 167.062 51.6752 166.29 50.3695L164.874 47.9758L160.723 50.4579L162.213 52.974ZM167.773 49.4515C168.511 50.7027 169.784 51.0699 170.881 50.4171C171.978 49.7575 172.188 48.4586 171.49 47.2822L170.061 44.8749L166.364 47.085L167.773 49.4583V49.4515Z" fill="white"/>
<path d="M168.769 57.5165C171.992 56.238 175.039 57.6865 176.116 60.4338C177.342 63.5551 175.852 66.248 172.805 67.4584L172.202 67.6965L169.067 59.713C167.083 60.5222 166.385 62.2019 167.137 64.1059C167.638 65.3776 168.81 66.2956 170.218 66.146L170.482 68.1453C168.227 68.3153 166.331 67.0028 165.458 64.7656C164.232 61.6442 165.647 58.7541 168.769 57.5165ZM172.886 65.1328C174.586 64.3439 175.026 62.6507 174.416 61.107C173.8 59.5362 172.155 58.6725 170.536 59.1553L172.886 65.1396V65.1328Z" fill="white"/>
<path d="M173.4 69.6072C176.624 68.9068 179.468 70.4709 180.104 73.4358C180.551 75.5167 179.535 76.7747 179.048 77.3119L179.082 77.4751L180.619 77.1419L181.059 79.182L172.689 80.9909C172.357 81.0589 172.242 81.3037 172.31 81.6301L172.418 82.1265L170.57 82.5277L170.258 81.0657C170.069 80.1816 170.475 79.3792 171.403 79.182L171.369 79.0392C170.773 78.7808 169.351 78.1415 168.89 75.9927C168.247 73.0074 170.143 70.3077 173.4 69.6004V69.6072ZM175.262 78.3728C177.646 77.8559 178.689 76.0335 178.296 74.2042C177.883 72.2865 176.021 71.2053 173.827 71.6813C171.572 72.1709 170.414 73.973 170.813 75.8499C171.254 77.8899 173.231 78.8216 175.262 78.3796V78.3728Z" fill="white"/>
<path d="M174.666 84.4728L181.688 84.1191L181.79 86.2068L175.12 86.54C173.569 86.6216 172.601 87.8049 172.669 89.1989C172.743 90.7358 173.982 91.8782 175.574 91.7966L182.054 91.4702L182.156 93.5511L171.213 94.1019L171.111 92.021L172.54 91.9462V91.7762C171.585 91.3614 170.752 90.3006 170.678 88.7025C170.556 86.2204 172.323 84.5884 174.666 84.4728Z" fill="white"/>
<path d="M174.173 98.2908L180.091 98.7669L180.254 96.7676L182.055 96.9104L181.886 99.0321L185 99.2837L184.845 101.235L181.73 100.984L181.472 104.221L179.671 104.078L179.929 100.841L174.03 100.365C173.049 100.283 172.595 100.651 172.52 101.616L172.378 103.357L170.557 103.207L170.699 101.439C170.861 99.3789 171.918 98.0936 174.173 98.2704V98.2908Z" fill="white"/>
<path d="M167.448 104.806L167.157 106.186C166.974 107.05 167.252 107.566 167.942 108.036L169.54 109.09L169.649 108.573L181.181 107.043L180.707 109.266L171.342 110.205L171.308 110.368L179.427 115.305L178.946 117.556L166.676 109.552C165.356 108.688 164.963 107.417 165.315 105.764L165.606 104.404L167.455 104.799L167.448 104.806Z" fill="white"/>
<path d="M170.231 128.083L179.84 126.927L178.824 129.15L171.727 129.817L171.666 129.953L175.784 135.801L174.734 138.099L169.351 130.021L163.493 127.314L164.38 125.376L170.238 128.083H170.231Z" fill="white"/>
<path d="M166.318 134.23C169.087 136.025 169.832 139.412 168.031 142.214C166.223 145.029 162.83 145.716 160.081 143.934C157.332 142.152 156.567 138.752 158.375 135.93C160.169 133.128 163.541 132.428 166.311 134.223L166.318 134.23ZM161.232 142.146C163.067 143.336 165.261 142.948 166.419 141.146C167.57 139.358 166.981 137.195 165.166 136.019C163.297 134.808 161.158 135.223 160.02 136.998C158.862 138.807 159.384 140.949 161.232 142.146Z" fill="white"/>
<path d="M157.115 145.151L162.349 149.864L160.961 151.421L155.991 146.947C154.833 145.906 153.309 146.062 152.388 147.103C151.366 148.252 151.44 149.932 152.632 150.999L157.46 155.345L156.072 156.902L147.912 149.558L149.3 148.001L150.363 148.959L150.479 148.837C150.099 147.871 150.248 146.538 151.311 145.342C152.964 143.492 155.361 143.58 157.115 145.158V145.151Z" fill="white"/>
<path d="M146.984 169.449L144.519 171.169L131.815 162.07L133.657 160.778L136.515 162.839L142.061 158.963L141.126 155.556L142.934 154.291L146.977 169.449H146.984ZM138.201 164.056L144.56 168.653L144.695 168.558L142.609 160.975L138.201 164.063V164.056Z" fill="white"/>
<path d="M127.827 160.561L123.466 162.648C122.593 163.063 122.423 163.634 122.85 164.532L124.211 167.409L124.36 167.334C124.428 166.552 124.854 165.042 126.771 164.124C129.5 162.818 132.459 164.11 133.894 167.137C135.323 170.142 134.334 173.304 131.606 174.61C129.676 175.535 128.24 174.773 127.692 174.501L127.556 174.562L128.206 175.929L126.371 176.807L120.961 165.409C119.985 163.356 120.812 161.907 122.667 161.016L127.041 158.922L127.82 160.561H127.827ZM125.843 170.992C126.73 172.856 128.673 173.869 130.549 172.971C132.256 172.155 132.98 170.149 131.985 168.055C131.01 166.001 129.046 165.192 127.278 166.035C125.592 166.844 124.793 168.789 125.843 170.992Z" fill="white"/>
<path d="M121.32 172.951C122.22 176.133 120.845 179.091 117.94 179.921C115.902 180.499 114.589 179.561 114.02 179.105L113.857 179.152L114.284 180.676L112.286 181.247L109.95 172.971C109.862 172.645 109.611 172.543 109.286 172.631L108.799 172.767L108.284 170.945L109.72 170.537C110.587 170.292 111.413 170.645 111.67 171.557L111.812 171.516C112.036 170.904 112.577 169.435 114.677 168.837C117.609 168 120.405 169.727 121.313 172.951H121.32ZM112.726 175.372C113.39 177.724 115.266 178.656 117.067 178.146C118.943 177.609 119.904 175.671 119.295 173.501C118.665 171.271 116.796 170.224 114.961 170.747C112.963 171.319 112.164 173.359 112.733 175.372H112.726Z" fill="white"/>
<path d="M105.948 180.465L107.919 180.173L108.183 181.968L104.154 182.566L102.549 171.679L104.607 171.373L105.948 180.465ZM107.018 185.422C107.126 186.17 106.639 186.864 105.847 186.98C105.034 187.102 104.364 186.578 104.255 185.83C104.14 185.035 104.634 184.348 105.44 184.226C106.233 184.11 106.903 184.627 107.018 185.422Z" fill="white"/>
<path d="M99.5426 183.144L97.4637 183.199L97.4231 181.764H97.2538C96.8137 182.709 95.7438 183.518 94.1524 183.559C91.674 183.627 90.0963 181.812 90.0353 179.452L89.8457 172.393L91.9246 172.339L92.1006 179.037C92.1413 180.594 93.306 181.621 94.6874 181.58C96.2178 181.539 97.3825 180.309 97.3419 178.704L97.1726 172.189L99.2515 172.135L99.5426 183.138V183.144Z" fill="white"/>
<path d="M71.8874 185.042L68.3594 183.94L68.7047 170.741L68.5625 170.7L61.405 181.777L57.877 180.676L62.2311 166.586L64.1949 167.198L60.4434 179.336L60.6059 179.384L67.7635 168.306L70.6888 169.217L70.3638 182.423L70.506 182.464L74.2574 170.326L76.2415 170.945L71.8874 185.035V185.042Z" fill="white"/>
<path d="M57.6124 170.428C56.0346 173.331 52.9941 174.474 50.3397 173.019C48.4775 171.999 48.1999 170.401 48.1118 169.68L47.9629 169.598L47.2112 170.985L45.3896 169.986L49.4932 162.437C49.6558 162.138 49.5474 161.893 49.2562 161.73L48.8161 161.485L49.7235 159.819L51.0304 160.54C51.8227 160.975 52.1612 161.805 51.7075 162.641L51.8362 162.709C52.4186 162.431 53.8338 161.764 55.7502 162.811C58.4182 164.28 59.2172 167.476 57.6191 170.421L57.6124 170.428ZM49.7912 166.116C48.6265 168.265 49.3104 170.251 50.9559 171.149C52.6691 172.087 54.7074 171.38 55.784 169.401C56.8878 167.368 56.2919 165.307 54.6126 164.389C52.791 163.389 50.7934 164.287 49.798 166.116H49.7912Z" fill="white"/>
<path d="M38.3338 171.006L36.6815 169.734L42.0717 162.676L40.8054 161.703L36.0315 163.179L34.1016 161.69L39.8506 159.983L39.9522 159.847L40.582 152.815L42.5457 154.332L41.9024 160.159L43.2161 161.173L46.2566 157.195L47.9088 158.466L38.3338 171.013V171.006Z" fill="white"/>
<path d="M36.472 156.474C34.0071 158.915 30.6349 158.793 28.5763 156.691C26.2333 154.304 26.5516 151.238 28.881 148.925L29.3415 148.47L35.3411 154.576C36.8512 153.053 36.8309 151.231 35.4021 149.775C34.4405 148.803 33.0049 148.415 31.7725 149.109L30.7432 147.375C32.7544 146.328 35.0093 146.79 36.6887 148.504C39.0316 150.891 38.8624 154.107 36.472 156.481V156.474ZM29.7072 151.095C28.4544 152.489 28.705 154.216 29.8697 155.406C31.0479 156.61 32.9034 156.753 34.2035 155.671L29.7072 151.095Z" fill="white"/>
<path d="M26.7821 140.133L26.0711 138.963L16.618 144.777L17.329 145.947L15.7918 146.892L12.5144 141.513C11.0111 139.051 11.5731 136.78 13.4488 135.624C14.6136 134.91 15.846 134.917 16.9159 135.495L17.0242 135.427C16.8753 134.38 17.1258 132.768 18.7713 131.755C21.0804 130.333 23.5521 131.36 24.8251 133.448L28.3193 139.187L26.7821 140.133ZM17.8436 138.31C17.0852 137.073 15.8121 136.712 14.7219 137.385C13.6317 138.059 13.4421 139.357 14.1531 140.527L15.609 142.921L19.2792 140.663L17.8436 138.31ZM23.3625 134.72C22.5634 133.407 21.2836 132.809 19.8683 133.679C18.4327 134.563 18.5275 136.086 19.3198 137.379L20.7689 139.752L24.8861 137.222L23.3625 134.72Z" fill="white"/>
<path d="M16.7593 130.266C13.5496 131.578 10.4888 130.17 9.3783 127.443C8.11879 124.343 9.57468 121.622 12.6084 120.378L13.211 120.133L16.4411 128.076C18.4184 127.246 19.0888 125.553 18.3168 123.663C17.8022 122.391 16.6171 121.493 15.2086 121.656L14.9175 119.657C17.1724 119.46 19.082 120.752 19.9826 122.976C21.2421 126.077 19.8675 128.987 16.7526 130.266H16.7593ZM12.5474 122.704C10.8545 123.513 10.4347 125.206 11.0644 126.75C11.701 128.314 13.36 129.157 14.9716 128.654L12.5542 122.704H12.5474Z" fill="white"/>
<path d="M11.972 118.222C8.76223 118.964 5.89108 117.433 5.22069 114.475C4.74668 112.401 5.74887 111.13 6.22966 110.592L6.18903 110.429L4.65187 110.783L4.19141 108.75L12.5408 106.832C12.8658 106.757 12.9877 106.512 12.9132 106.186L12.7981 105.689L14.64 105.268L14.9718 106.73C15.1749 107.614 14.7754 108.416 13.8545 108.627L13.8883 108.77C14.4842 109.022 15.9198 109.647 16.4074 111.782C17.0845 114.761 15.2291 117.481 11.9787 118.229L11.972 118.222ZM10.0014 109.484C7.63138 110.028 6.60209 111.864 7.02193 113.693C7.45532 115.604 9.33782 116.665 11.525 116.162C13.7732 115.645 14.9108 113.829 14.4842 111.959C14.0238 109.926 12.0261 109.022 10.0014 109.484Z" fill="white"/>
<path d="M10.5165 103.377L3.4944 103.819L3.36574 101.739L10.029 101.317C11.5797 101.222 12.5345 100.018 12.4465 98.6309C12.3516 97.094 11.1057 95.972 9.50758 96.0672L3.03393 96.4752L2.90527 94.3943L13.8414 93.7075L13.9701 95.7884L12.548 95.8768L12.5616 96.0468C13.5096 96.4548 14.356 97.4953 14.4576 99.0933C14.6134 101.575 12.8663 103.228 10.5165 103.377Z" fill="white"/>
<path d="M10.8413 89.5457L4.91618 89.1377L4.78075 91.137L2.9795 91.0146L3.12171 88.8929L0 88.6821L0.135432 86.7236L3.25714 86.9344L3.47383 83.6975L5.27507 83.8199L5.05838 87.0568L10.9632 87.458C11.9451 87.526 12.392 87.152 12.4597 86.1864L12.5749 84.4387L14.3964 84.5611L14.2745 86.3292C14.1323 88.3897 13.103 89.6953 10.8346 89.5389L10.8413 89.5457Z" fill="white"/>
<path d="M17.4913 82.9563L17.769 81.5691C17.945 80.6986 17.6606 80.1954 16.9564 79.7262L15.3447 78.6926L15.2432 79.2094L3.73145 80.8891L4.17837 78.6586L13.5299 77.5977L13.5638 77.4345L5.38371 72.6063L5.83741 70.3555L18.2091 78.203C19.5363 79.053 19.9494 80.3178 19.6176 81.9703L19.3467 83.3371L17.4913 82.9631V82.9563Z" fill="white"/>
<path d="M14.4166 59.7131L4.82129 60.9847L5.80994 58.7475L12.8998 57.9926L12.9607 57.8566L8.7759 52.0628L9.79841 49.7507L15.2766 57.7614L21.1611 60.3931L20.3012 62.338L14.4166 59.7063V59.7131Z" fill="white"/>
<path d="M18.2496 53.518C15.4597 51.7568 14.6742 48.377 16.4349 45.5549C18.209 42.7124 21.588 41.9848 24.3644 43.7325C27.1407 45.4801 27.9398 48.8735 26.1656 51.716C24.405 54.5381 21.0395 55.2793 18.2496 53.518ZM23.2403 45.5345C21.3917 44.3717 19.1977 44.7797 18.06 46.6022C16.936 48.4042 17.5454 50.5599 19.3805 51.716C21.263 52.906 23.4028 52.4572 24.5201 50.6755C25.6578 48.8531 25.1093 46.7178 23.2403 45.5413V45.5345Z" fill="white"/>
<path d="M27.3169 42.4811L22.0215 37.8365L23.3893 36.2656L28.4139 40.679C29.5854 41.7058 31.1022 41.529 32.0164 40.4818C33.0253 39.3257 32.9238 37.6393 31.7252 36.5852L26.8429 32.3011L28.2107 30.7302L36.4653 37.9725L35.0974 39.5433L34.0208 38.5981L33.9124 38.7273C34.3052 39.6862 34.1697 41.0258 33.1201 42.2294C31.4882 44.0995 29.091 44.0383 27.3169 42.4879V42.4811Z" fill="white"/>
<path d="M37.1494 18.0548L39.594 16.3003L52.4126 25.2426L50.5843 26.5551L47.6996 24.5286L42.201 28.4795L43.1761 31.8797L41.3817 33.1649L37.1562 18.0548H37.1494ZM45.9999 23.3385L39.5804 18.8232L39.445 18.9184L41.6254 26.4735L45.9999 23.3318V23.3385Z" fill="white"/>
<path d="M56.4212 26.7046L60.755 24.5626C61.6218 24.1341 61.7843 23.5629 61.3509 22.6721L59.9492 19.816L59.8002 19.8908C59.7393 20.6728 59.333 22.1893 57.4301 23.1277C54.7147 24.4674 51.742 23.2161 50.2658 20.2036C48.8031 17.2115 49.7512 14.0426 52.4666 12.7029C54.3897 11.7509 55.832 12.4989 56.3805 12.7641L56.5092 12.6961L55.8388 11.3361L57.6672 10.4316L63.2199 21.7609C64.2221 23.8009 63.4162 25.263 61.5676 26.1742L57.2135 28.3231L56.4144 26.6978L56.4212 26.7046ZM58.2698 16.2527C57.3624 14.3962 55.4054 13.4169 53.5432 14.335C51.8503 15.1714 51.1529 17.1843 52.1686 19.2652C53.1708 21.3052 55.1481 22.0941 56.8952 21.2304C58.5745 20.4008 59.3465 18.4491 58.2698 16.2527Z" fill="white"/>
<path d="M62.7723 14.2398C61.831 11.0641 63.165 8.0924 66.0633 7.22877C68.0948 6.62355 69.422 7.54838 69.9908 7.9904L70.1533 7.94279L69.7064 6.42634L71.6973 5.83472L74.135 14.0834C74.2298 14.4098 74.4804 14.505 74.7986 14.4098L75.2794 14.267L75.8144 16.0827L74.3856 16.5111C73.5188 16.7695 72.6927 16.4227 72.4218 15.5115L72.2796 15.5523C72.0697 16.1643 71.5415 17.6399 69.4491 18.2656C66.5305 19.136 63.7068 17.4495 62.7588 14.233L62.7723 14.2398ZM71.3316 11.7033C70.6409 9.35724 68.7448 8.44601 66.9571 8.98323C65.0882 9.54085 64.1537 11.4925 64.7902 13.655C65.4471 15.8787 67.3296 16.8987 69.1579 16.3547C71.1488 15.7631 71.9207 13.7026 71.3316 11.7033Z" fill="white"/>
<path d="M78.0362 6.53515L76.0657 6.85476L75.7812 5.06629L79.8036 4.42027L81.5371 15.2871L79.4853 15.6203L78.0362 6.54195V6.53515ZM76.9053 1.59137C76.7834 0.84334 77.271 0.142915 78.0565 0.0205104C78.8623 -0.108694 79.5395 0.401324 79.6614 1.14935C79.79 1.93818 79.3025 2.63861 78.4967 2.76781C77.7112 2.89702 77.034 2.387 76.9053 1.59137Z" fill="white"/>
<path d="M84.415 3.77403L86.4939 3.69243L86.548 5.12728H86.7173C87.1439 4.17525 88.2003 3.35242 89.7984 3.29122C92.27 3.19601 93.8749 4.99128 93.9697 7.34416L94.2406 14.4028L92.1617 14.4844L91.9044 7.78618C91.8434 6.22892 90.6719 5.21569 89.2838 5.27009C87.7534 5.33129 86.6022 6.57573 86.6631 8.18059L86.9137 14.6884L84.8348 14.77L84.4082 3.77403H84.415Z" fill="white"/>
</g>
<defs>
<clipPath id="clip0_401_8063">
<rect width="185" height="187" fill="white"/>
</clipPath>
</defs>
</svg>
