<svg width="11" height="12" viewBox="0 0 11 12" fill="none" xmlns="http://www.w3.org/2000/svg">
<path d="M10.5107 10.3053L8.41672 8.21139C9.1167 7.38112 9.54028 6.31097 9.54028 5.1427C9.54028 2.51231 7.40053 0.372559 4.77014 0.372559C2.13975 0.372559 0 2.51231 0 5.1427C0 7.77309 2.13975 9.91283 4.77014 9.91283C5.93841 9.91283 7.00857 9.48924 7.83885 8.78926L9.93277 10.8832C10.0124 10.9628 10.1171 11.0032 10.2217 11.0032C10.3264 11.0032 10.4311 10.9634 10.5107 10.8832C10.6704 10.724 10.6704 10.4651 10.5107 10.3053ZM0.817738 5.1427C0.817738 2.96315 2.59059 1.1903 4.77014 1.1903C6.94968 1.1903 8.72254 2.96315 8.72254 5.1427C8.72254 7.32224 6.94968 9.0951 4.77014 9.0951C2.59059 9.0951 0.817738 7.32224 0.817738 5.1427Z" fill="white"/>
</svg>
