<svg width="33" height="31" viewBox="0 0 33 31" fill="none" xmlns="http://www.w3.org/2000/svg">
<path d="M32.3303 16.2338C32.3303 16.2253 32.3352 16.2186 32.3352 16.21C32.3352 16.1879 32.3234 16.1675 32.3217 16.1453C32.3115 16.0875 32.2979 16.0297 32.286 15.9718C32.2741 15.9327 32.2689 15.8936 32.2536 15.8579C32.1856 15.5601 32.1125 15.2622 32.0002 14.9712L30.2321 10.605C29.4358 8.59031 28.7501 6.85129 24.7105 6.85129H20.5076V3.44811C20.5076 1.57125 18.9813 0.0449219 17.1044 0.0449219H3.49168C1.61483 0.0449219 0.088501 1.57125 0.088501 3.44811V22.1656C0.088501 24.0425 1.61483 25.5688 3.49168 25.5688H3.57851C3.52236 25.8445 3.49168 26.1286 3.49168 26.4196C3.49168 28.7644 5.39917 30.6736 7.74566 30.6736C10.0922 30.6736 11.9996 28.7644 11.9996 26.4196C11.9996 26.1286 11.969 25.8445 11.9128 25.5688H20.5926C20.5364 25.8445 20.5059 26.1286 20.5059 26.4196C20.5059 28.7644 22.4134 30.6736 24.7599 30.6736C27.1064 30.6736 29.0139 28.7644 29.0139 26.4196C29.0139 26.1286 28.9832 25.8445 28.9271 25.5688H29.0139C30.8908 25.5688 32.4171 24.0425 32.4171 22.1656V17.197C32.4205 16.872 32.3813 16.552 32.3303 16.2338ZM24.7121 8.55288C27.5929 8.55288 27.9265 9.39181 28.6531 11.2363L30.3223 15.3592H20.5093V8.55288H24.7121ZM7.74733 28.972C6.34011 28.972 5.19494 27.8268 5.19494 26.4196C5.19494 25.0124 6.34011 23.8672 7.74733 23.8672C9.15454 23.8672 10.2997 25.0124 10.2997 26.4196C10.2997 27.8268 9.15454 28.972 7.74733 28.972ZM24.7632 28.972C23.356 28.972 22.2109 27.8268 22.2109 26.4196C22.2109 25.0124 23.356 23.8672 24.7632 23.8672C26.1705 23.8672 27.3156 25.0124 27.3156 26.4196C27.3156 27.8268 26.1705 28.972 24.7632 28.972ZM30.7188 22.1656C30.7188 23.1049 29.9565 23.8672 29.0172 23.8672H28.1444C27.3668 22.8394 26.1466 22.1656 24.7632 22.1656C23.3799 22.1656 22.158 22.8394 21.3821 23.8672H11.1302C10.3525 22.8394 9.13238 22.1656 7.74899 22.1656C6.36559 22.1656 5.14396 22.8394 4.36803 23.8672H3.49501C2.55573 23.8672 1.79342 23.1049 1.79342 22.1656V17.0608H12.8538C13.3234 17.0608 13.7046 16.6797 13.7046 16.21C13.7046 15.7404 13.3234 15.3592 12.8538 15.3592H1.79342V3.44811C1.79342 2.50883 2.55573 1.74651 3.49501 1.74651H17.1077C18.047 1.74651 18.8093 2.50883 18.8093 3.44811V17.0608H30.7086C30.7103 17.1068 30.7205 17.1511 30.7205 17.197V22.1656H30.7188Z" fill="#FAF6ED"/>
</svg>
